<svg width="24" height="22" viewBox="0 0 24 22" fill="none" xmlns="http://www.w3.org/2000/svg">
<path d="M22.4304 8.81576C21.9796 10.7271 20.9346 12.4685 19.4112 13.8484L11.5881 20.8281L3.89916 13.8502C2.3731 12.4676 1.32855 10.7266 0.877284 8.8153C0.552923 7.44226 0.686241 6.66663 0.686699 6.66159L0.693571 6.61532C0.99136 3.26221 3.31916 0.828125 6.22925 0.828125C8.37654 0.828125 10.2668 2.14756 11.1639 4.27103L11.5858 5.27114L12.0077 4.27103C12.8906 2.18009 14.8807 0.828583 17.0789 0.828583C19.9885 0.828583 22.3168 3.26267 22.6205 6.6593C22.6214 6.66663 22.7547 7.44272 22.4304 8.81576Z" stroke="#8B4513"/>
</svg>
