<?xml version="1.0" encoding="UTF-8" standalone="no"?>
<svg
   version="1.0"
   width="2109.000000pt"
   height="2109.000000pt"
   viewBox="0 0 2109.000000 2109.000000"
   preserveAspectRatio="xMidYMid meet"
   id="svg838"
   sodipodi:docname="fazOL.svg"
   inkscape:version="1.1.2 (b8e25be8, 2022-02-05)"
   xmlns:inkscape="http://www.inkscape.org/namespaces/inkscape"
   xmlns:sodipodi="http://sodipodi.sourceforge.net/DTD/sodipodi-0.dtd"
   xmlns="http://www.w3.org/2000/svg"
   xmlns:svg="http://www.w3.org/2000/svg">
  <defs
     id="defs842" />
  <sodipodi:namedview
     id="namedview840"
     pagecolor="#000000"
     bordercolor="#666666"
     borderopacity="1.0"
     inkscape:pageshadow="2"
     inkscape:pageopacity="0.0"
     inkscape:pagecheckerboard="0"
     inkscape:document-units="pt"
     showgrid="false"
     inkscape:lockguides="false"
     inkscape:zoom="0.91607397"
     inkscape:cx="1788.0652"
     inkscape:cy="508.14674"
     inkscape:window-width="1920"
     inkscape:window-height="1052"
     inkscape:window-x="0"
     inkscape:window-y="0"
     inkscape:window-maximized="1"
     inkscape:current-layer="g836" />
  <g
     transform="translate(0.000000,2109.000000) scale(0.100000,-0.100000)"
     fill="#FF0000"
     stroke="none"
     id="g836">
    <path
       d="M12350 19644 c-19 -2 -91 -9 -160 -14 -225 -20 -469 -68 -658 -130 -177 -58 -447 -176 -567 -247 -17 -10 -51 -30 -77 -46 -219 -128 -500 -406 -645 -637 -109 -174 -132 -222 -192 -395 -80 -229 -124 -408 -141 -570 -6 -60 -15 -148 -20 -195 -9 -83 -6 -1624 3 -1705 3 -32 9 -330 7 -381 0 -21 -38 -23 -56 -3 -16 18 -208 124 -358 197 -174 85 -351 139 -600 183 -150 26 -193 29 -372 29 -464 0 -803 -91 -1219 -326 -266 -151 -467 -318 -626 -519 -103 -130 -134 -161 -187 -187 -41 -19 -54 -20 -161 -13 -145 9 -249 7 -421 -6 -138 -11 -345 -42 -390 -58 -14 -6 -72 -24 -130 -41 -178 -52 -495 -185 -541 -226 -8 -8 -19 -14 -22 -14 -17 0 -217 -133 -263 -175 -302 -276 -446 -454 -563 -697 -69 -142 -101 -184 -148 -197 -21 -6 -99 -18 -173 -26 -224 -27 -550 -103 -695 -163 -200 -83 -382 -184 -526 -292 -240 -180 -481 -434 -594 -625 -32 -55 -75 -127 -95 -160 -146 -240 -272 -617 -305 -916 -21 -197 -37 -559 -40 -939 -1 -184 -5 -614 -9 -955 -4 -341 -9 -847 -12 -1125 -2 -278 -6 -561 -9 -630 -59 -1600 -42 -2176 84 -2800 53 -266 180 -655 290 -895 10 -22 31 -69 46 -104 70 -168 206 -435 285 -561 5 -8 24 -40 42 -70 211 -361 354 -547 699 -915 145 -154 269 -284 277 -288 7 -5 83 -67 167 -137 85 -71 180 -147 212 -169 32 -22 69 -49 83 -60 14 -11 29 -21 34 -21 5 0 27 -14 50 -31 76 -56 220 -145 341 -209 66 -35 143 -77 170 -92 96 -54 205 -108 280 -138 42 -17 102 -43 134 -59 62 -32 195 -81 301 -110 36 -11 103 -30 150 -44 170 -50 277 -77 385 -98 61 -11 130 -25 155 -30 267 -51 597 -67 1530 -74 732 -5 1514 -18 1825 -30 550 -22 815 -25 1024 -10 213 15 400 33 411 40 4 2 78 15 166 29 171 27 189 31 426 100 146 43 243 76 321 109 17 8 73 31 122 52 50 21 126 55 170 76 44 20 103 47 130 59 102 44 140 65 241 127 57 34 107 63 111 63 3 0 20 11 37 23 25 19 126 83 224 142 44 27 182 122 222 154 25 20 68 52 95 71 28 18 73 53 100 76 58 49 266 187 424 281 51 30 279 143 290 143 5 0 35 12 67 26 33 14 68 29 79 34 68 30 187 65 305 91 74 16 153 34 175 39 88 22 360 59 540 74 276 23 553 37 605 32 179 -18 2334 -27 3055 -13 944 19 972 21 1090 67 11 4 58 23 105 41 47 18 114 50 150 72 36 22 85 51 110 65 157 86 413 323 514 476 20 30 47 64 61 74 14 11 25 27 25 35 0 9 9 31 19 49 49 82 191 488 216 615 51 258 69 606 44 845 -23 225 -93 507 -173 706 -63 154 -151 344 -180 391 -14 22 -26 43 -26 45 0 3 -20 39 -45 79 -25 41 -45 77 -45 79 0 13 -94 167 -164 268 -71 103 -205 269 -277 342 -14 14 -38 41 -53 59 -30 35 -216 197 -311 270 -70 53 -295 201 -375 246 -70 40 -268 126 -340 148 -30 9 -96 30 -147 47 -122 39 -335 67 -608 78 -121 5 -670 14 -1220 20 -616 6 -1033 14 -1085 21 -264 35 -431 186 -538 489 -13 39 -16 146 -20 825 -2 429 1 1034 7 1345 6 311 13 759 17 995 3 237 7 459 9 495 3 36 9 567 15 1180 6 613 15 1495 21 1960 20 1608 21 2040 10 2410 -13 443 -25 541 -101 810 -104 368 -315 712 -585 954 -140 125 -144 128 -261 208 -240 166 -503 301 -666 343 -35 9 -97 27 -138 41 -41 13 -147 37 -235 54 -88 16 -182 34 -210 40 -132 27 -407 45 -525 34z m305 -622 c17 -5 66 -15 109 -22 209 -32 407 -95 601 -190 161 -80 271 -154 421 -283 52 -45 196 -215 251 -297 88 -130 176 -325 208 -460 51 -211 52 -259 35 -1265 -10 -630 -16 -1054 -30 -2200 -5 -423 -12 -873 -15 -1000 -3 -126 -8 -516 -11 -865 -3 -349 -7 -725 -9 -835 -1 -110 -5 -598 -9 -1085 -3 -487 -8 -1155 -11 -1485 -5 -587 1 -834 26 -995 18 -116 58 -290 79 -345 56 -148 74 -192 96 -227 13 -21 24 -41 24 -44 0 -4 19 -34 42 -68 86 -127 226 -257 366 -339 56 -33 208 -96 247 -102 11 -2 36 -8 55 -14 74 -24 229 -50 330 -55 230 -13 1128 -34 1790 -41 272 -3 538 -8 590 -11 243 -15 486 -89 715 -216 190 -106 309 -196 471 -354 197 -194 325 -360 467 -610 53 -94 97 -174 97 -178 0 -3 16 -40 36 -82 35 -74 68 -160 84 -219 5 -16 18 -55 29 -85 11 -30 32 -113 47 -185 15 -71 33 -159 40 -195 8 -36 17 -155 20 -265 8 -235 -9 -396 -57 -565 -31 -108 -115 -309 -142 -341 -9 -10 -23 -31 -31 -46 -16 -31 -171 -185 -228 -226 -98 -72 -251 -133 -408 -165 -78 -15 -259 -17 -2265 -17 -1733 0 -2199 -3 -2275 -13 -52 -7 -144 -20 -205 -28 -152 -20 -499 -85 -555 -105 -14 -4 -63 -17 -110 -29 -122 -29 -416 -133 -600 -213 -114 -50 -194 -90 -280 -142 -30 -18 -98 -58 -150 -89 -95 -55 -111 -67 -205 -141 -150 -120 -226 -175 -475 -343 -313 -211 -594 -367 -865 -482 -11 -4 -36 -15 -55 -23 -40 -17 -205 -76 -300 -107 -82 -27 -282 -74 -380 -89 -108 -16 -279 -33 -288 -27 -7 4 -614 12 -1697 22 -319 2 -722 7 -895 9 -173 2 -547 5 -830 5 -667 2 -801 15 -1250 123 -151 36 -508 153 -612 201 -158 72 -223 103 -353 173 -82 44 -161 86 -174 94 -70 41 -368 244 -419 286 -33 26 -77 62 -98 80 -21 17 -49 40 -62 51 -13 11 -42 35 -65 54 -133 105 -597 601 -597 638 0 5 -28 46 -63 92 -94 128 -109 149 -146 208 -190 307 -373 676 -468 940 -53 149 -139 437 -158 530 -9 47 -25 117 -36 155 -44 162 -87 560 -91 845 -2 96 0 369 4 605 4 237 10 887 13 1445 16 3166 15 3085 47 3280 23 141 79 354 110 413 11 22 26 56 33 76 18 52 55 130 82 174 13 21 33 55 45 75 54 99 210 284 323 384 189 169 486 336 695 393 36 9 83 23 105 30 134 46 313 64 587 60 l207 -3 15 42 c9 22 26 73 40 111 93 267 249 510 460 720 252 250 557 426 872 504 162 41 207 45 454 46 242 0 342 -15 538 -82 57 -19 109 -33 115 -30 7 2 31 40 55 83 111 206 157 274 288 424 87 100 117 129 199 195 264 213 534 342 850 405 129 26 425 37 591 21 330 -30 714 -189 981 -406 120 -98 237 -218 326 -337 59 -78 177 -268 222 -358 51 -101 166 -444 182 -543 3 -21 10 -40 14 -43 5 -3 9 -15 9 -26 0 -12 3 -19 6 -16 3 4 7 237 10 520 5 614 11 1286 19 2073 3 319 5 795 5 1057 0 386 3 497 16 580 49 317 176 609 353 811 314 358 721 559 1261 623 127 15 514 12 565 -4z"
       id="path824" />
    <path
       d="m 12135,18384 c -75,-11 -211,-36 -219,-42 -5,-3 -51,-20 -102,-38 -165,-57 -318,-156 -440,-285 -113,-119 -210,-327 -233,-499 -5,-41 -13,-408 -16,-815 -3,-407 -8,-999 -10,-1315 -3,-316 -7,-1000 -10,-1520 -10,-1984 -16,-2852 -20,-3035 -2,-104 -4,-290 -4,-412 -1,-208 -2,-222 -20,-228 -17,-5 -19,-21 -24,-203 -2,-108 -10,-222 -17,-252 -28,-129 -83,-330 -107,-390 -220,-559 -681,-986 -1233,-1143 -226,-65 -279,-72 -545,-72 -247,0 -355,12 -476,51 -26,9 -56,14 -66,12 -11,-2 -39,-45 -78,-119 -152,-295 -378,-557 -620,-722 -33,-22 -72,-50 -87,-62 -14,-13 -86,-52 -160,-88 -135,-67 -297,-125 -443,-158 -101,-23 -318,-49 -413,-49 -105,0 -350,27 -445,50 -234,55 -507,175 -690,304 -60,42 -113,76 -119,76 -5,0 -53,-34 -105,-76 -182,-146 -463,-283 -698,-339 -60,-14 -126,-30 -145,-36 -57,-16 -345,-26 -480,-17 -270,18 -537,96 -800,235 -248,132 -377,240 -656,551 l -42,46 -7,-99 c -8,-98 -5,-159 16,-350 12,-110 14,-762 4,-1360 -7,-381 -3,-482 30,-764 13,-119 36,-243 65,-351 5,-19 20,-78 34,-130 21,-83 62,-208 153,-465 13,-38 36,-94 50,-125 14,-30 33,-73 42,-95 16,-39 104,-212 126,-247 5,-9 27,-46 47,-83 96,-168 286,-429 429,-590 111,-125 238,-256 291,-300 19,-16 61,-54 93,-83 168,-154 462,-350 728,-485 237,-120 397,-185 587,-237 25,-6 59,-18 76,-25 43,-18 244,-60 409,-85 77,-11 163,-25 190,-30 28,-5 397,-12 820,-15 424,-3 925,-7 1115,-10 190,-3 696,-7 1125,-10 429,-2 825,-8 880,-11 231,-14 644,95 950,253 28,14 84,42 125,63 41,20 129,69 194,109 66,39 121,71 123,71 3,0 24,14 48,30 24,16 48,30 53,30 6,0 12,3 14,8 2,4 30,25 63,47 121,80 303,212 410,298 115,93 294,217 313,217 6,0 12,4 14,8 12,32 687,362 738,362 5,0 34,11 64,25 55,25 376,122 476,144 30,7 64,16 75,21 11,5 38,12 60,16 22,4 47,9 55,11 8,2 38,8 65,12 28,5 91,16 140,25 50,9 101,18 115,21 14,2 54,8 90,14 69,12 193,23 455,42 104,7 471,11 1050,10 2458,-4 3119,-1 3225,12 14,2 57,14 95,28 52,18 82,37 120,74 60,59 86,111 122,243 25,89 27,111 25,257 -4,230 -54,502 -122,660 -10,22 -21,51 -25,65 -24,82 -136,293 -242,458 -172,266 -462,513 -729,621 -147,60 -248,70 -706,71 -224,0 -413,2 -420,4 -7,3 -177,7 -378,10 -1276,20 -1207,16 -1555,87 -259,53 -559,197 -764,366 -77,64 -201,189 -251,253 -19,25 -37,47 -40,50 -11,10 -109,167 -147,235 -35,63 -70,144 -131,305 -26,67 -67,227 -93,364 -48,248 -50,314 -49,1441 1,583 3,1164 5,1290 2,127 6,610 9,1075 7,941 11,1295 26,2120 11,628 17,1073 25,2035 3,358 7,702 10,765 3,63 5,297 5,520 0,451 -2,472 -66,632 -125,313 -439,549 -849,640 -72,16 -135,21 -315,23 -124,2 -238,1 -255,-1 z"
       id="path826"
       sodipodi:nodetypes="cccccscccccccccscccccccsccscccscccccccccccccccccccccccscccccssscccscsccsssccccccccccccccccccccccccccccccsscccc" />
    <path
       d="M8290 14454 c-14 -2 -41 -8 -60 -14 -19 -5 -57 -14 -85 -20 -289 -68 -576 -279 -742 -545 -156 -249 -206 -436 -207 -767 -1 -109 -4 -198 -7 -198 -4 0 -32 31 -63 69 -93 114 -260 259 -371 321 -114 65 -151 82 -239 115 -168 62 -354 88 -533 75 -178 -13 -286 -43 -478 -130 -73 -33 -261 -170 -326 -237 -62 -64 -175 -210 -214 -277 -49 -84 -105 -228 -134 -344 -55 -223 -61 -382 -21 -612 35 -202 34 -200 18 -200 -8 0 -27 14 -44 31 -72 75 -261 197 -396 255 -89 38 -196 71 -271 84 -29 5 -63 12 -77 16 -14 4 -82 9 -151 11 -108 4 -146 1 -257 -21 -149 -29 -198 -44 -300 -92 -41 -19 -76 -34 -78 -34 -7 0 -120 -74 -179 -118 -33 -25 -90 -76 -127 -115 -263 -272 -389 -587 -387 -966 0 -140 0 -138 111 -686 45 -222 58 -290 102 -525 67 -358 81 -429 114 -590 16 -80 35 -176 41 -215 14 -90 81 -293 122 -370 199 -372 480 -605 869 -718 261 -77 606 -52 850 61 159 73 324 188 405 281 17 20 47 53 68 76 77 80 210 315 237 418 7 26 18 47 25 47 7 0 24 -29 38 -64 28 -73 151 -263 229 -353 60 -69 169 -165 275 -241 129 -93 352 -181 537 -213 89 -15 392 -6 461 14 164 47 207 62 275 94 116 55 233 138 346 245 81 78 118 124 179 219 171 269 232 495 222 814 -5 146 -9 185 -27 252 -9 36 3 52 23 31 7 -7 28 -33 46 -58 34 -45 80 -92 137 -140 220 -187 342 -251 609 -321 80 -21 112 -24 280 -24 198 1 262 10 415 63 223 78 455 254 595 452 56 80 104 167 127 230 96 270 112 358 106 578 -5 159 -7 171 -89 557 -11 55 -22 114 -25 130 -6 51 -44 245 -71 365 -14 63 -43 198 -63 300 -55 269 -110 532 -115 555 -16 69 -25 112 -44 210 -12 61 -34 171 -50 245 -16 74 -43 200 -60 280 -82 390 -104 494 -126 605 -38 189 -90 335 -152 432 -18 29 -33 55 -33 59 0 41 -334 394 -373 394 -3 0 -26 14 -51 30 -60 41 -218 114 -286 134 -190 53 -225 59 -375 62 -82 1 -161 0 -175 -2z"
       id="path828" />
    <path
       d="M90 19390 c20 -13 53 -13 45 0 -3 6 -18 10 -33 10 -21 0 -24 -2 -12 -10z"
       id="path830" />
  </g>
</svg>
