<?xml version="1.0" encoding="UTF-8" standalone="no"?>
<!DOCTYPE svg PUBLIC "-//W3C//DTD SVG 1.1//EN" "http://www.w3.org/Graphics/SVG/1.1/DTD/svg11.dtd">

<!-- Created with Vectornator (http://vectornator.io/) -->
<svg height="100%" stroke-miterlimit="10" style="fill-rule:nonzero;clip-rule:evenodd;stroke-linecap:round;stroke-linejoin:round;" version="1.1" viewBox="0 0 50 50" width="100%" xml:space="preserve" xmlns="http://www.w3.org/2000/svg" xmlns:vectornator="http://vectornator.io" xmlns:xlink="http://www.w3.org/1999/xlink">
<metadata>
<vectornator:setting key="IsTimeLapseWatermarkDisabled" value="false"/>
<vectornator:setting key="UndoHistoryDisabled" value="true"/>
<vectornator:setting key="VNDimensionsVisible" value="true"/>
<vectornator:setting key="VNSnapToGuides" value="true"/>
<vectornator:setting key="WDCMYKEnabledKey" value="false"/>
<vectornator:setting key="WDDisplayWhiteBackground" value="false"/>
<vectornator:setting key="WDDynamicGuides" value="false"/>
<vectornator:setting key="WDGuidesVisible" value="true"/>
<vectornator:setting key="WDIsolateActiveLayer" value="false"/>
<vectornator:setting key="WDOutlineMode" value="false"/>
<vectornator:setting key="WDRulersVisible" value="true"/>
<vectornator:setting key="WDSnapToEdges" value="false"/>
<vectornator:setting key="WDSnapToGrid" value="false"/>
<vectornator:setting key="WDSnapToPoints" value="false"/>
<vectornator:setting key="WDUnits" value="Points"/>
</metadata>
<defs/>
<g id="Untitled" vectornator:layerName="Untitled">
<path d="M4.90159 32.5L45.1016 32.5C45.1016 32.5 46.9485 31.0683 47.255 30.1028C47.7499 28.5452 47.4873 26.7094 46.5375 25.3075C44.7228 22.6304 37.5637 19.6131 37.5637 19.6131L36.8462 22.9094L35.052 18.714C35.052 18.714 32.4838 17.5972 30.7443 17.5149C29.2917 17.4462 26.4375 18.1143 26.4375 18.1143L25.3608 22.9094L24.2841 18.1143C24.2841 18.1143 20.9437 17.3881 19.2588 17.5149C17.7516 17.6285 14.9516 18.714 14.9516 18.714L13.8748 22.9094L12.4391 19.6131C12.4391 19.6131 5.34262 22.5884 3.46586 25.3075C2.50259 26.7024 2.25289 28.5452 2.748 30.1028C3.0551 31.0683 4.9016 32.5 4.90159 32.5Z" fill="#000000" fill-rule="evenodd" opacity="1" stroke="#FFFFFF" stroke-linecap="butt" stroke-linejoin="miter" stroke-width="1"/>
</g>
</svg>
