<?xml version="1.0" encoding="UTF-8" standalone="no"?>
<!DOCTYPE svg PUBLIC "-//W3C//DTD SVG 1.1//EN" "http://www.w3.org/Graphics/SVG/1.1/DTD/svg11.dtd">

<!-- Created with Vectornator (http://vectornator.io/) -->
<svg height="100%" stroke-miterlimit="10" style="fill-rule:nonzero;clip-rule:evenodd;stroke-linecap:round;stroke-linejoin:round;" version="1.1" viewBox="0 0 50 50" width="100%" xml:space="preserve" xmlns="http://www.w3.org/2000/svg" xmlns:vectornator="http://vectornator.io" xmlns:xlink="http://www.w3.org/1999/xlink">
<metadata>
<vectornator:setting key="IsTimeLapseWatermarkDisabled" value="false"/>
<vectornator:setting key="UndoHistoryDisabled" value="true"/>
<vectornator:setting key="VNDimensionsVisible" value="true"/>
<vectornator:setting key="VNSnapToGuides" value="true"/>
<vectornator:setting key="WDCMYKEnabledKey" value="false"/>
<vectornator:setting key="WDDisplayWhiteBackground" value="false"/>
<vectornator:setting key="WDDynamicGuides" value="false"/>
<vectornator:setting key="WDGuidesVisible" value="true"/>
<vectornator:setting key="WDIsolateActiveLayer" value="false"/>
<vectornator:setting key="WDOutlineMode" value="false"/>
<vectornator:setting key="WDRulersVisible" value="true"/>
<vectornator:setting key="WDSnapToEdges" value="false"/>
<vectornator:setting key="WDSnapToGrid" value="false"/>
<vectornator:setting key="WDSnapToPoints" value="false"/>
<vectornator:setting key="WDUnits" value="Points"/>
</metadata>
<defs/>
<g id="g115" vectornator:layerName="g115">
<path d="M30.4491 17.1016C31.2416 17.1016 31.9374 17.4347 32.4478 17.9795C31.9387 17.4509 31.2285 17.1016 30.4491 17.1016ZM30.4491 17.1016C28.8904 17.1016 27.6332 18.4045 27.6332 20.028C27.6332 20.8398 27.9818 21.5792 28.4909 22.1183C27.9661 21.5771 27.6332 20.8538 27.6332 20.028C27.6332 18.4045 28.8904 17.1016 30.4491 17.1016ZM17.557 24.5012C17.5659 24.4928 17.5887 24.5096 17.5977 24.5012C17.2587 24.8264 17.0267 25.2584 17.0267 25.7555C17.0267 25.2584 17.218 24.8264 17.557 24.5012ZM31.1423 28.849C31.1515 28.8399 31.1737 28.8581 31.1828 28.849C30.5183 29.5377 30.081 30.4746 30.081 31.5246C30.081 32.5748 30.5183 33.5116 31.1828 34.2002C30.5027 33.5096 30.081 32.5887 30.081 31.5246C30.081 30.4746 30.4779 29.5377 31.1423 28.849ZM12.539 16.7672C12.8988 16.7672 13.1917 17.0648 13.1917 17.4361C13.1917 17.8073 12.8988 18.105 12.539 18.105C12.1793 18.105 11.8864 17.8073 11.8863 17.4361C11.8863 17.0648 12.1793 16.7672 12.539 16.7672Z" fill="#000000" fill-rule="evenodd" opacity="1" stroke="#FFFFFF" stroke-linecap="round" stroke-linejoin="round" stroke-width="1"/>
<path d="M12.539 16.7672C12.8988 16.7672 13.1917 17.0648 13.1917 17.4361C13.1917 17.8073 12.8988 18.105 12.539 18.105C12.1793 18.105 11.8864 17.8073 11.8863 17.4361C11.8863 17.0648 12.1793 16.7672 12.539 16.7672ZM30.4491 17.1016C32.0079 17.1016 33.2637 18.4045 33.2637 20.028C33.2637 21.6516 32.0079 22.9962 30.4491 22.9962C28.8904 22.9962 27.6332 21.6516 27.6332 20.028C27.6332 18.4045 28.8904 17.1016 30.4491 17.1016ZM18.9032 23.9578C19.9442 23.9578 20.78 24.7613 20.78 25.7555C20.78 26.7496 19.9442 27.5531 18.9032 27.5531C17.8624 27.5531 17.0267 26.7496 17.0267 25.7555C17.0267 25.2453 17.2429 24.8282 17.5977 24.5012C17.9345 24.1911 18.3964 23.9578 18.9032 23.9578ZM33.7533 27.7203C35.782 27.7203 37.4243 29.4245 37.4243 31.5246C37.4243 33.6248 35.782 35.329 33.7533 35.329C31.7246 35.329 30.081 33.6248 30.081 31.5246C30.081 30.4607 30.5027 29.5397 31.1828 28.849C31.8447 28.1765 32.752 27.7203 33.7533 27.7203Z" fill="none" fill-rule="evenodd" opacity="1" stroke="#FFFFFF" stroke-linecap="round" stroke-linejoin="round" stroke-width="1"/>
<path d="M4.37728 12.5L4.17336 13.0435C4.17336 13.0435 2.46188 19.2034 2.50065 25.2926C2.53955 31.382 4.05273 37.3131 4.33654 37.4164C4.62036 37.5198 4.33654 37.4583 4.33654 37.4583L47.295 37.5L47.0914 37.3746L47.3368 37.3746L47.3368 34.8244C47.3368 34.8244 45.9804 34.511 45.2154 33.8211C44.4504 33.1313 44.44 31.7726 44.44 31.7726C44.44 31.7726 44.4321 30.5621 45.2154 29.7241C45.9987 28.8862 47.3773 28.7207 47.3773 28.7207L47.4178 22.7007C47.4178 22.7007 45.6671 22.8144 44.3995 21.9064C43.2246 21.0655 43.2232 19.1544 43.2572 18.8545C43.2898 18.5547 43.3538 17.7025 44.44 16.597C45.5561 15.4615 47.5 15.7191 47.5 15.7191L47.5 12.8763L4.37728 12.5ZM12.539 16.7672C12.8988 16.7672 13.1917 17.0648 13.1917 17.4361C13.1917 17.8073 12.8988 18.1049 12.539 18.1049C12.1793 18.1049 11.8864 17.8073 11.8863 17.4361C11.8863 17.0648 12.1793 16.7672 12.539 16.7672ZM30.4491 17.1016C32.0079 17.1016 33.2637 18.4045 33.2637 20.028C33.2637 21.6516 32.0079 22.9962 30.4491 22.9962C28.8904 22.9962 27.6332 21.6516 27.6332 20.028C27.6332 18.4045 28.8904 17.1016 30.4491 17.1016ZM18.9032 23.9578C19.9442 23.9578 20.78 24.7613 20.78 25.7555C20.78 26.7496 19.9442 27.5531 18.9032 27.5531C17.8624 27.5531 17.0267 26.7496 17.0267 25.7555C17.0267 25.2453 17.2429 24.8282 17.5977 24.5012C17.9345 24.1911 18.3964 23.9578 18.9032 23.9578ZM33.7533 27.7203C35.782 27.7203 37.4243 29.4245 37.4243 31.5246C37.4243 33.6248 35.782 35.329 33.7533 35.329C31.7246 35.329 30.081 33.6248 30.081 31.5246C30.081 30.4607 30.5027 29.5397 31.1828 28.849C31.8447 28.1765 32.752 27.7203 33.7533 27.7203Z" fill="#000000" fill-rule="evenodd" opacity="1" stroke="#FFFFFF" stroke-linecap="round" stroke-linejoin="round" stroke-width="1"/>
</g>
</svg>
