<?xml version="1.0" encoding="UTF-8" standalone="no"?>
<!DOCTYPE svg PUBLIC "-//W3C//DTD SVG 1.1//EN" "http://www.w3.org/Graphics/SVG/1.1/DTD/svg11.dtd">

<!-- Created with Vectornator (http://vectornator.io/) -->
<svg height="100%" stroke-miterlimit="10" style="fill-rule:nonzero;clip-rule:evenodd;stroke-linecap:round;stroke-linejoin:round;" version="1.1" viewBox="0 0 50 50" width="100%" xml:space="preserve" xmlns="http://www.w3.org/2000/svg" xmlns:vectornator="http://vectornator.io" xmlns:xlink="http://www.w3.org/1999/xlink">
<metadata>
<vectornator:setting key="IsTimeLapseWatermarkDisabled" value="false"/>
<vectornator:setting key="UndoHistoryDisabled" value="true"/>
<vectornator:setting key="VNDimensionsVisible" value="true"/>
<vectornator:setting key="VNSnapToGuides" value="true"/>
<vectornator:setting key="WDCMYKEnabledKey" value="false"/>
<vectornator:setting key="WDDisplayWhiteBackground" value="false"/>
<vectornator:setting key="WDDynamicGuides" value="false"/>
<vectornator:setting key="WDGuidesVisible" value="true"/>
<vectornator:setting key="WDIsolateActiveLayer" value="false"/>
<vectornator:setting key="WDOutlineMode" value="false"/>
<vectornator:setting key="WDRulersVisible" value="true"/>
<vectornator:setting key="WDSnapToEdges" value="false"/>
<vectornator:setting key="WDSnapToGrid" value="false"/>
<vectornator:setting key="WDSnapToPoints" value="false"/>
<vectornator:setting key="WDUnits" value="Points"/>
</metadata>
<defs/>
<g id="g55" vectornator:layerName="g55">
<path d="M21.1255 35.2626L21.4937 35.2626C25.064 35.2626 27.9596 38.002 27.9596 41.3813L27.9596 41.3813C27.9596 44.7605 25.064 47.5 21.4937 47.5L21.1255 47.5C17.554 47.5 14.6596 44.7605 14.6596 41.3813L14.6596 41.3813C14.6596 38.002 17.554 35.2626 21.1255 35.2626Z" fill="#000000" fill-rule="evenodd" opacity="1" stroke="#FFFFFF" stroke-linecap="round" stroke-linejoin="round" stroke-width="1"/>
<path d="M38.166 32.3974L38.5341 32.3974C42.1044 32.3974 45 35.1368 45 38.5162L45 38.5162C45 41.8955 42.1044 44.6349 38.5341 44.6349L38.166 44.6349C34.5944 44.6349 31.7001 41.8955 31.7001 38.5162L31.7001 38.5162C31.7001 35.1368 34.5944 32.3974 38.166 32.3974Z" fill="#000000" fill-rule="evenodd" opacity="1" stroke="#FFFFFF" stroke-linecap="round" stroke-linejoin="round" stroke-width="1"/>
<path d="M21.8594 36.5962C21.8594 32.8209 22.3832 23.1535 23.6639 19.5058C24.8757 16.0555 30.0911 8.5278 32.2408 6.45857" fill="none" fill-rule="evenodd" opacity="1" stroke="#FFFFFF" stroke-linecap="round" stroke-linejoin="round" stroke-width="1"/>
<path d="M37.2354 34.5707C35.1871 32.5945 31.8039 27.8777 31.169 24.2048C30.6922 21.4526 32.3349 6.55702 33.822 5.12554" fill="none" fill-rule="evenodd" opacity="1" stroke="#FFFFFF" stroke-linecap="round" stroke-linejoin="round" stroke-width="1"/>
<path d="M24.4255 2.5C18.2661 2.5 12.5908 3.18399 7.6035 6.71143C6.59565 7.42386 5.03862 9.45951 5.03862 9.45951C5.05794 9.47824 5.09415 9.47675 5.11346 9.49526C5.08208 9.53797 5.03259 9.55944 5 9.60227C5 9.60227 9.81231 10.5333 11.6361 11.1095C19.7508 13.673 27.583 9.83663 33.8558 5.14107L33.7049 5.14107C31.3681 2.93034 27.6337 2.5 24.4255 2.5Z" fill="#000000" fill-rule="evenodd" opacity="1" stroke="#FFFFFF" stroke-linecap="round" stroke-linejoin="round" stroke-width="1"/>
</g>
</svg>
