<?xml version="1.0" encoding="UTF-8" standalone="no"?>
<!DOCTYPE svg PUBLIC "-//W3C//DTD SVG 1.1//EN" "http://www.w3.org/Graphics/SVG/1.1/DTD/svg11.dtd">

<!-- Created with Vectornator (http://vectornator.io/) -->
<svg height="100%" stroke-miterlimit="10" style="fill-rule:nonzero;clip-rule:evenodd;stroke-linecap:round;stroke-linejoin:round;" version="1.1" viewBox="0 0 50 50" width="100%" xml:space="preserve" xmlns="http://www.w3.org/2000/svg" xmlns:vectornator="http://vectornator.io" xmlns:xlink="http://www.w3.org/1999/xlink">
<metadata>
<vectornator:setting key="IsTimeLapseWatermarkDisabled" value="false"/>
<vectornator:setting key="UndoHistoryDisabled" value="true"/>
<vectornator:setting key="VNDimensionsVisible" value="true"/>
<vectornator:setting key="VNSnapToGuides" value="true"/>
<vectornator:setting key="WDCMYKEnabledKey" value="false"/>
<vectornator:setting key="WDDisplayWhiteBackground" value="false"/>
<vectornator:setting key="WDDynamicGuides" value="false"/>
<vectornator:setting key="WDGuidesVisible" value="true"/>
<vectornator:setting key="WDIsolateActiveLayer" value="false"/>
<vectornator:setting key="WDOutlineMode" value="false"/>
<vectornator:setting key="WDRulersVisible" value="true"/>
<vectornator:setting key="WDSnapToEdges" value="false"/>
<vectornator:setting key="WDSnapToGrid" value="false"/>
<vectornator:setting key="WDSnapToPoints" value="false"/>
<vectornator:setting key="WDUnits" value="Points"/>
</metadata>
<defs/>
<g id="g713" vectornator:layerName="g713">
<path d="M25.3839 44.9312C25.0268 45.0056 24.6442 44.9845 24.2798 44.9964C21.21 45.0963 18.044 43.0986 17.2044 39.8638C16.6182 37.6065 18.1208 35.2999 17.3616 33.0595C16.9363 31.8012 15.9162 30.7554 15.4129 29.4848C14.3101 26.6996 12.9976 23.8138 12.3627 20.8506C11.9946 19.1394 12.2372 17.1135 12.1969 15.3661C12.1689 14.1293 11.6644 11.697 12.4419 10.651C13.1304 9.72536 14.5733 8.86538 15.4678 8.13075C16.3793 7.38333 17.5175 6.26931 18.7033 6.11415C20.7177 5.85056 22.9759 6.0114 25.0012 6.11351" fill="#000000" fill-rule="evenodd" opacity="1" stroke="#FFFFFF" stroke-linecap="round" stroke-linejoin="round" stroke-width="1"/>
<path d="M12.4577 20.986C9.47083 22.2301 5.34207 20.3601 3.64693 17.675C3.20578 16.9744 2.51603 14.926 2.50141 14.6646C2.40879 13.0413 6.91168 12.3263 8.49348 12.7677C9.64632 13.0892 10.6298 13.9603 11.6607 14.5016" fill="#000000" fill-rule="evenodd" opacity="1" stroke="#FFFFFF" stroke-linecap="round" stroke-linejoin="round" stroke-width="1"/>
<path d="M12.0653 11.8824C11.4243 11.7682 8.49836 8.26371 7.978 7.5203C7.5795 6.95257 7.09448 6.43519 6.73742 5.8623C6.66186 5.74277 6.24265 4.98851 6.30236 5.00013C7.50151 5.2352 9.21736 6.32573 10.6212 6.96329C12.4139 7.77795 13.9128 8.14198 15.4848 8.14198" fill="#000000" fill-rule="evenodd" opacity="1" stroke="#FFFFFF" stroke-linecap="round" stroke-linejoin="round" stroke-width="1"/>
<path d="M22.525 40.2308C21.9376 40.2308 20.8554 38.1605 20.6811 37.6049C20.658 37.5317 20.4935 37.3506 20.5544 37.3065C21.1808 36.859 25.1828 37.1811 26.1821 37.1811" fill="#000000" fill-rule="evenodd" opacity="1" stroke="#FFFFFF" stroke-linecap="round" stroke-linejoin="round" stroke-width="1"/>
<path d="M24.6149 44.9312C24.972 45.0056 25.3546 44.9845 25.719 44.9964C28.7888 45.0963 31.9548 43.0986 32.7945 39.8638C33.3806 37.6065 31.878 35.2999 32.6373 33.0595C33.0626 31.8012 34.0838 30.7554 34.5859 29.4848C35.6887 26.6996 37.0012 23.8138 37.6374 20.8506C38.0042 19.1394 37.7617 17.1135 37.8019 15.3661C37.8299 14.1293 38.3344 11.697 37.5569 10.651C36.8684 9.72536 35.4255 8.86538 34.531 8.13075C33.6195 7.38333 32.4813 6.26931 31.2955 6.11415C29.2811 5.85056 27.023 6.0114 24.9976 6.11351" fill="#000000" fill-rule="evenodd" opacity="1" stroke="#FFFFFF" stroke-linecap="round" stroke-linejoin="round" stroke-width="1"/>
<path d="M37.5411 20.986C40.528 22.2301 44.658 20.3601 46.3519 17.675C46.793 16.9744 47.4828 14.926 47.4986 14.6646C47.59 13.0413 43.0884 12.3263 41.5053 12.7677C40.3525 13.0892 39.3703 13.9603 38.3393 14.5016" fill="#000000" fill-rule="evenodd" opacity="1" stroke="#FFFFFF" stroke-linecap="round" stroke-linejoin="round" stroke-width="1"/>
<path d="M37.9335 11.8824C38.5745 11.7682 41.5005 8.26371 42.022 7.5203C42.4193 6.95257 42.9043 6.43519 43.2626 5.8623C43.337 5.74277 43.7562 4.98851 43.6965 5.00013C42.4985 5.2352 40.7815 6.32573 39.3788 6.96329C37.585 7.77795 36.0873 8.14198 34.5152 8.14198" fill="#000000" fill-rule="evenodd" opacity="1" stroke="#FFFFFF" stroke-linecap="round" stroke-linejoin="round" stroke-width="1"/>
<path d="M27.4751 40.2308C28.0612 40.2308 29.1434 38.1605 29.3189 37.6049C29.342 37.5317 29.5066 37.3506 29.4444 37.3065C28.818 36.859 24.816 37.1811 23.8167 37.1811" fill="#000000" fill-rule="evenodd" opacity="1" stroke="#FFFFFF" stroke-linecap="round" stroke-linejoin="round" stroke-width="1"/>
</g>
</svg>
