<?xml version="1.0" encoding="UTF-8" standalone="no"?>
<!DOCTYPE svg PUBLIC "-//W3C//DTD SVG 1.1//EN" "http://www.w3.org/Graphics/SVG/1.1/DTD/svg11.dtd">
<!-- Created with Vectornator (http://vectornator.io/) -->
<svg height="100%" stroke-miterlimit="10" style="fill-rule:nonzero;clip-rule:evenodd;stroke-linecap:round;stroke-linejoin:round;" version="1.1" viewBox="0 0 130 230" width="100%" xml:space="preserve" xmlns="http://www.w3.org/2000/svg" xmlns:vectornator="http://vectornator.io" xmlns:xlink="http://www.w3.org/1999/xlink">
<defs/>
<g id="Untitled" vectornator:layerName="Untitled">
<g opacity="1">
<path d="M40.7552 96.241C26.2288 97.5801 14.9723 61.6843 23.3906 52.453C26.5099 49.0297 34.5607 46.0555 39.2532 45.7683C44.6466 45.4405 48.7046 49.0136 53.8088 50.1087C59.3687 51.3011 74.6451 49.2879 78.2765 54.6215C79.7292 56.7537 79.5846 60.4405 79.6921 62.902C80.0023 70.4932 77.2956 78.2679 68.8773 79.3202C66.5511 79.6101 63.7651 78.6319 61.6648 79.9261C58.5746 81.8221 60.0113 87.8541 58.0405 90.6095C56.4582 92.8235 43.9538 95.9459 40.7552 96.241Z" fill="#ffffff" fill-rule="evenodd" opacity="1" stroke="#ffffff" stroke-linecap="round" stroke-linejoin="round" stroke-width="0.813793"/>
<path d="M75.7726 147.266C70.4947 149.035 65.1054 124.29 65.0562 119.278C64.998 113.693 71.1282 107.884 74.0267 104.029C85.2169 89.1578 95.37 82.5323 112.235 94.0166C117.56 97.6437 124.019 107.05 119.688 113.746C113.533 123.266 104.042 107.392 93.5518 118.169C89.4055 122.428 95.9102 126.826 95.874 131.48C95.875 131.661 76.7936 146.924 75.7726 147.266Z" fill="#ffffff" fill-rule="evenodd" opacity="1" stroke="#ffffff" stroke-linecap="round" stroke-linejoin="round" stroke-width="0.813793"/>
<path d="M11.4413 165.038C3.08833 160.459 7.65839 146.115 12.3228 139.478C19.0444 129.908 36.3076 125.57 47.297 128.019C57.1952 130.225 63.8595 153.927 61.8526 162.515C60.7552 167.184 57.4331 171.25 53.4915 173.736C35.2675 185.216 25.0943 172.522 11.4413 165.038Z" fill="#ffffff" fill-rule="evenodd" opacity="1" stroke="#ffffff" stroke-linecap="round" stroke-linejoin="round" stroke-width="0.813793"/>
<path d="M88.776 172.364C86.3203 165.974 96.6521 151.659 104.516 156.41C106.579 157.662 108.212 159.43 110.631 160.021C112.783 160.548 116.645 158.403 118.19 159.941C127.67 169.35 113.504 185.063 104.558 187.347C96.9262 189.295 90.9496 178.017 88.776 172.364Z" fill="#ffffff" fill-rule="evenodd" opacity="1" stroke="#ffffff" stroke-linecap="round" stroke-linejoin="round" stroke-width="0.813793"/>
<path d="M65.8905 211.292C60.8014 207.812 60.2954 198.51 59.949 192.683C59.2131 180.425 60.953 176.547 73.0528 176.547C75.6019 176.547 78.7212 176.092 80.9731 177.762C87.9055 182.904 84.0061 189.151 84.0061 196.393C84.0061 201.473 87.7599 205.146 85.7741 210.786C85.0814 212.76 67.5882 212.455 65.8905 211.292Z" fill="#ffffff" fill-rule="evenodd" opacity="1" stroke="#ffffff" stroke-linecap="round" stroke-linejoin="round" stroke-width="0.813793"/>
<path d="M19.2321 222.704C10.1563 221.383 9.18241 198.352 13.0226 190.977C16.0204 185.221 34.2063 185.235 38.9932 186.609C47.3543 189.008 54.8911 203.345 48.4938 210.656C43.5713 216.279 38.0977 210.947 33.1672 213.468C24.1345 218.074 31.8741 224.544 19.2321 222.704Z" fill="#ffffff" fill-rule="evenodd" opacity="1" stroke="#ffffff" stroke-linecap="round" stroke-linejoin="round" stroke-width="0.813793"/>
<path d="M17.2613 117.192C10.7416 114.925 16.4883 97.4977 20.4449 98.4895C38.1559 102.929 25.4276 106.472 22.6908 113.515C22.0262 115.22 23.8383 119.931 22.6848 121.118C18.9801 124.936 19.2763 117.889 17.2623 117.192L17.2613 117.192Z" fill="#ffffff" fill-rule="evenodd" opacity="1" stroke="#ffffff" stroke-linecap="round" stroke-linejoin="round" stroke-width="0.813793"/>
<path d="M92.1212 65.2162C86.0914 63.4912 93.5287 53.1879 98.4813 54.8561C103.412 56.5158 112.38 69.2021 103.428 70.7101C97.5065 71.7081 96.6762 66.5198 92.1212 65.2162Z" fill="#ffffff" fill-rule="evenodd" opacity="1" stroke="#ffffff" stroke-linecap="round" stroke-linejoin="round" stroke-width="0.813793"/>
<path d="M96.0969 209.418C95.9092 207.083 100.031 205.89 101.814 204.466C103.504 203.109 101.844 201.586 103.692 200.266C107.461 197.575 114.27 198.695 115.937 203.067C118.789 210.549 106.342 220.635 98.1912 215.837C95.0056 213.964 96.1471 210.073 96.0969 209.418Z" fill="#ffffff" fill-rule="evenodd" opacity="1" stroke="#ffffff" stroke-linecap="round" stroke-linejoin="round" stroke-width="0.813793"/>
<path d="M69.6213 19.0395C63.744 8.71843 76.1611 1.97595 83.975 7.49272C91.0419 12.4844 78.8036 24.5851 77.3036 29.1923C76.1973 32.5716 80.1549 35.0348 79.2955 37.6705C78.927 38.8019 75.4463 39.914 74.5156 40.1026C65.9457 41.8533 72.7185 25.8837 71.9103 23.7859C71.2236 22.0031 70.6463 20.833 69.6213 19.0395Z" fill="#ffffff" fill-rule="evenodd" opacity="1" stroke="#ffffff" stroke-linecap="round" stroke-linejoin="round" stroke-width="0.813793"/>
<path d="M39.3416 2.5C39.3416 2.5 37.2794 3.42588 37.2794 4.37501C37.2794 5.32414 39.3416 6.25002 39.3416 6.25002L39.7924 31.0932L24.5471 46.93L5.40047 27.0422C5.40047 27.0422 3.94774 27.4803 3.43469 28.0128C2.92168 28.5453 2.5 30.055 2.5 30.055L21.6135 49.9439L6.40042 65.7804L6.85121 223.75C6.85121 223.75 4.78905 224.676 4.78905 225.625C4.78905 226.574 6.85121 227.5 6.85121 227.5L123.147 227.5C123.147 227.5 125.21 226.574 125.21 225.625C125.21 224.676 123.147 223.75 123.147 223.75L123.599 65.7804L108.384 49.9439L127.5 30.055C127.5 30.055 127.078 28.5453 126.566 28.0128C126.052 27.4793 124.597 27.0422 124.597 27.0422L105.453 46.93L90.2076 31.0932L90.6564 6.25002C90.6564 6.25002 92.7195 5.32414 92.7195 4.37501C92.7195 3.42588 90.6564 2.5 90.6564 2.5L39.3416 2.5Z" fill="none" opacity="1" stroke="#ffffff" stroke-linecap="round" stroke-linejoin="round" stroke-width="1.01724"/>
</g>
</g>
</svg>
