<?xml version="1.0" encoding="UTF-8" standalone="no"?>
<!DOCTYPE svg PUBLIC "-//W3C//DTD SVG 1.1//EN" "http://www.w3.org/Graphics/SVG/1.1/DTD/svg11.dtd">

<!-- Created with Vectornator (http://vectornator.io/) -->
<svg height="100%" stroke-miterlimit="10" style="fill-rule:nonzero;clip-rule:evenodd;stroke-linecap:round;stroke-linejoin:round;" version="1.1" viewBox="0 0 50 50" width="100%" xml:space="preserve" xmlns="http://www.w3.org/2000/svg" xmlns:vectornator="http://vectornator.io" xmlns:xlink="http://www.w3.org/1999/xlink">
<metadata>
<vectornator:setting key="IsTimeLapseWatermarkDisabled" value="false"/>
<vectornator:setting key="UndoHistoryDisabled" value="true"/>
<vectornator:setting key="VNDimensionsVisible" value="true"/>
<vectornator:setting key="VNSnapToGuides" value="true"/>
<vectornator:setting key="WDCMYKEnabledKey" value="false"/>
<vectornator:setting key="WDDisplayWhiteBackground" value="false"/>
<vectornator:setting key="WDDynamicGuides" value="false"/>
<vectornator:setting key="WDGuidesVisible" value="true"/>
<vectornator:setting key="WDIsolateActiveLayer" value="false"/>
<vectornator:setting key="WDOutlineMode" value="false"/>
<vectornator:setting key="WDRulersVisible" value="true"/>
<vectornator:setting key="WDSnapToEdges" value="false"/>
<vectornator:setting key="WDSnapToGrid" value="false"/>
<vectornator:setting key="WDSnapToPoints" value="false"/>
<vectornator:setting key="WDUnits" value="Points"/>
</metadata>
<defs/>
<g id="g159" vectornator:layerName="g159">
<path d="M23.6413 3.34755L26.3587 3.34755C26.3587 3.34755 26.9935 3.63058 27.1739 3.91361C27.3554 4.19664 27.4457 5.04572 27.4457 5.04572L27.4457 6.7439C27.4457 6.7439 27.5935 7.2864 27.9891 7.87601C29.7783 10.7811 31.2239 13.4657 31.25 16.9329L31.25 18.7018L31.25 19.5864L30.163 20.4708L31.25 21.3553L31.25 22.2397L30.163 23.1242L31.25 24.0086L31.25 25.7776L31.25 27.5465L31.25 29.3154L31.25 31.0843L31.25 38.1601L31.25 39.0442L31.25 39.9284L30.163 40.8126L31.25 41.6979L31.25 42.5821L30.163 43.4663L31.25 44.3505L31.25 45.2358C31.25 45.2358 31.0696 46.5558 30.7065 46.9339C30.3446 47.3109 29.0761 47.5 29.0761 47.5L20.9239 47.5C20.9239 47.5 19.6565 47.3109 19.2935 46.9339C18.9315 46.5558 18.75 45.2358 18.75 45.2358L18.75 44.3505L19.837 43.4663L18.75 42.5821L18.75 41.6979L19.837 40.8126L18.75 39.9284L18.75 39.0442L18.75 38.1601L18.75 31.0843L18.75 29.3154L18.75 27.5465L18.75 25.7776L18.75 24.0086L19.837 23.1242L18.75 22.2397L18.75 21.3553L19.837 20.4708L18.75 19.5864L18.75 18.7018L18.75 16.9329C18.8652 13.6798 19.9272 10.4744 22.0109 7.87601C22.6935 7.08749 22.5543 6.7439 22.5543 6.7439L22.5543 5.04572C22.5543 5.04572 22.6457 4.19664 22.8261 3.91361C23.0076 3.63058 23.6413 3.34755 23.6413 3.34755Z" fill="#000000" fill-rule="evenodd" opacity="1" stroke="#FFFFFF" stroke-linecap="butt" stroke-linejoin="miter" stroke-width="1"/>
<path d="M22.1478 5.53956L27.8544 5.53956L27.8533 3.31212C27.8533 3.31212 27.3511 2.84467 27.0381 2.74606C25.9978 2.41798 24.0022 2.41798 22.962 2.74606C22.65 2.84467 22.1467 3.31212 22.1467 3.31212L22.1478 5.53956Z" fill="#000000" fill-rule="evenodd" opacity="1" stroke="#FFFFFF" stroke-linecap="butt" stroke-linejoin="miter" stroke-width="1"/>
<path d="M18.75 25.9898L31.25 25.9898L31.25 38.4431L18.75 38.4431L18.75 25.9898Z" fill="#000000" fill-rule="evenodd" opacity="1" stroke="#FFFFFF" stroke-linecap="butt" stroke-linejoin="miter" stroke-width="1"/>
</g>
</svg>
