<?xml version="1.0" encoding="UTF-8" standalone="no"?>
<!DOCTYPE svg PUBLIC "-//W3C//DTD SVG 1.1//EN" "http://www.w3.org/Graphics/SVG/1.1/DTD/svg11.dtd">

<!-- Created with Vectornator (http://vectornator.io/) -->
<svg height="100%" stroke-miterlimit="10" style="fill-rule:nonzero;clip-rule:evenodd;stroke-linecap:round;stroke-linejoin:round;" version="1.1" viewBox="0 0 50 50" width="100%" xml:space="preserve" xmlns="http://www.w3.org/2000/svg" xmlns:vectornator="http://vectornator.io" xmlns:xlink="http://www.w3.org/1999/xlink">
<metadata>
<vectornator:setting key="IsTimeLapseWatermarkDisabled" value="false"/>
<vectornator:setting key="UndoHistoryDisabled" value="true"/>
<vectornator:setting key="VNDimensionsVisible" value="true"/>
<vectornator:setting key="VNSnapToGuides" value="true"/>
<vectornator:setting key="WDCMYKEnabledKey" value="false"/>
<vectornator:setting key="WDDisplayWhiteBackground" value="false"/>
<vectornator:setting key="WDDynamicGuides" value="false"/>
<vectornator:setting key="WDGuidesVisible" value="true"/>
<vectornator:setting key="WDIsolateActiveLayer" value="false"/>
<vectornator:setting key="WDOutlineMode" value="false"/>
<vectornator:setting key="WDRulersVisible" value="true"/>
<vectornator:setting key="WDSnapToEdges" value="false"/>
<vectornator:setting key="WDSnapToGrid" value="false"/>
<vectornator:setting key="WDSnapToPoints" value="false"/>
<vectornator:setting key="WDUnits" value="Points"/>
</metadata>
<defs/>
<g id="g151" vectornator:layerName="g151">
<path d="M23.6422 2.5L26.3577 2.5C26.3577 2.5 26.992 2.77439 27.1723 3.04878C27.3537 3.32317 27.4438 4.14633 27.4438 4.14633L27.4438 12.378C27.4438 12.378 27.5916 12.9039 27.9869 13.4756C28.3834 14.0472 30.3863 15.7621 30.7024 16.2194C31.3367 17.134 31.2454 17.8658 31.2454 17.8658L31.2454 31.5854L31.2454 45.3049C31.2454 45.3049 31.0651 46.5846 30.7024 46.9512C30.3407 47.3167 29.0731 47.5 29.0731 47.5L20.9268 47.5C20.9268 47.5 19.6603 47.3167 19.2975 46.9512C18.9358 46.5846 18.7544 45.3049 18.7544 45.3049L18.7544 31.5854L18.7544 17.8658C18.7544 17.8658 18.6643 17.1341 19.2975 16.2194C19.6147 15.7621 21.3308 14.24 22.013 13.4756C22.6951 12.7111 22.556 12.378 22.556 12.378L22.556 4.14633C22.556 4.14633 22.6473 3.32317 22.8276 3.04878C23.009 2.77439 23.6422 2.5 23.6422 2.5Z" fill="#000000" fill-rule="evenodd" opacity="1" stroke="#FFFFFF" stroke-linecap="butt" stroke-linejoin="miter" stroke-width="1"/>
<path d="M22.556 12.378L27.4438 12.378L27.4438 4.14633C27.4438 4.14633 27.5025 3.13691 27.1723 2.77439C27.0354 2.62391 26.3577 2.5 26.3577 2.5L23.6422 2.5C23.6422 2.5 23.0177 2.55762 22.8276 2.77439C22.5224 3.12407 22.556 4.14633 22.556 4.14633L22.556 12.378" fill="#000000" fill-rule="evenodd" opacity="1" stroke="#FFFFFF" stroke-linecap="butt" stroke-linejoin="miter" stroke-width="1"/>
<path d="M20.3837 17.8658L29.6162 17.8658L29.6162 32.1342L20.3837 32.1342L20.3837 17.8658Z" fill="#000000" fill-rule="evenodd" opacity="1" stroke="#FFFFFF" stroke-linecap="butt" stroke-linejoin="miter" stroke-width="1"/>
</g>
</svg>
